<?xml version="1.0" encoding="UTF-8"?>
<svg width="182px" height="44px" viewBox="0 0 182 44" version="1.1" xmlns="http://www.w3.org/2000/svg" xmlns:xlink="http://www.w3.org/1999/xlink">
    <!-- Generator: Sketch 60 (88103) - https://sketch.com -->
    <title>logo_owse</title>
    <desc>Created with Sketch.</desc>
    <g id="Page-2" stroke="none" stroke-width="1" fill="none" fill-rule="evenodd">
        <g id="Preview" transform="translate(-135.000000, -20.000000)">
            <g id="logo_owse" transform="translate(135.000000, 20.000000)">
                <path d="M78.7063914,0.651828117 C80.7149505,1.0901576 81.6367969,2.70453138 82.1680613,4.5456725 C82.9858912,7.38065757 83.7738164,10.2250803 84.5388579,13.0752706 C86.2824349,19.5710409 87.9870057,26.0772976 89.7545064,32.5665139 C90.0041461,33.483021 90.5179877,34.3263858 91.0086857,35.4253554 C92.5725741,33.5690091 92.9293508,31.6148775 93.4034061,29.7496178 C95.7237547,20.6228219 97.9957356,11.4837047 100.243273,2.33855772 C100.507735,1.26292024 100.953705,0.84687425 102.096327,0.904549182 C104.163915,1.00888838 106.240345,0.934173125 108.614002,0.934173125 C107.556414,4.7441267 106.568257,8.28327025 105.591022,11.8255597 C103.259752,20.2744129 100.936283,28.7253634 98.6005917,37.1726437 C98.3686348,38.0110275 98.1041728,38.8431194 97.8022649,39.6584332 C96.7072309,42.6166329 94.5967356,44.0380578 91.4205911,43.988772 C88.4095728,43.9421077 86.0317551,42.3101693 85.2084643,39.3847395 C83.2227888,32.3276872 81.3530918,25.237603 79.4490694,18.1574808 C78.8049471,15.7623981 78.2338963,13.3463428 77.5494676,10.9633195 C77.3872018,10.3981051 76.9027449,9.92700581 76.5662514,9.41265028 L76.1603269,9.4608875 L76.1603269,9.4608875 C75.9140678,10.1259843 75.6145002,10.7761381 75.430131,11.4580131 C73.5159669,18.5331543 71.6444496,25.6203548 69.7068818,32.688942 C69.021933,35.1891503 68.2168451,37.6571131 67.4148777,40.1227164 C66.5479,42.7880848 64.3599124,43.6962028 61.896021,43.950759 C59.4165271,44.2066259 57.1123011,43.4956513 55.9600581,41.1037146 C54.8993496,38.9015808 54.0986824,36.5384816 53.4553402,34.1714499 C50.5865645,23.6148401 47.8153042,13.0314901 45.0081583,2.45783996 C44.8877592,2.00404311 44.7626793,1.5512949 44.603274,0.963534908 C47.0562436,0.963534908 49.4207993,0.907432929 51.7767735,1.02383143 C52.13251,1.04139607 52.6252883,1.81528879 52.7566092,2.31837149 C53.8547636,6.52103892 54.8673645,10.7465142 55.9363943,14.9570464 C57.4945618,21.0947078 59.063391,27.2300097 60.6740869,33.3537767 C60.8337523,33.9606743 61.3179492,34.4807973 61.6513221,35.0415549 C62.1214768,34.4281034 62.8358103,33.8828131 63.0253804,33.1909761 C65.5802863,23.8612694 68.090465,14.5187169 70.5499357,5.16279427 C71.734944,0.654449704 74.6669097,-0.229287548 78.7063914,0.651828117 Z M17.5357562,20.9265591 C19.4259965,23.9316852 20.8999106,27.1997566 22.6889948,30.2738305 C23.974379,32.4827804 25.3744414,34.6398228 26.901404,36.6849235 C28.2921049,38.5470373 30.319647,39.5914779 32.8160435,40.3284062 C30.2626979,42.041876 27.6906293,43.0692763 24.9443331,43.4252879 C16.6383536,44.5014497 9.7254155,41.6751159 4.52770982,35.1400218 C-0.331942153,29.029887 -1.14275095,22.077174 1.43997932,14.7296498 C1.57780122,14.3379846 2.19435916,13.8904796 2.61484596,13.8611178 C8.87716075,13.4214775 14.0881285,15.4453433 17.5357562,20.9265591 Z M141.982191,0.0603979053 L143.515395,0.0603979053 L143.515395,6.17000831 C142.09921,6.17000831 140.729312,6.18232977 139.359934,6.16764888 C133.770347,6.108401 128.181019,6.0339479 122.591431,5.98623501 C121.994116,5.98099183 121.394981,6.10813884 120.797666,6.18311625 C118.826813,6.43006982 117.48682,7.4472459 117.136024,9.47347112 C116.784448,11.5010071 117.246022,13.3956287 118.992199,14.5606623 C120.300727,15.433651 121.824309,16.0465783 123.327868,16.5423205 C128.342504,18.1960181 133.41357,19.6769531 138.420145,21.3545071 C142.512415,22.7258597 145.784775,24.8579971 145.631351,31.7420245 C145.597545,33.2575644 145.645393,34.8370711 145.244409,36.2702931 C144.17772,40.0812954 142.420361,42.5254017 137.233057,42.6252842 C128.657934,42.790182 120.079432,42.7623932 111.503269,42.8692467 C110.179139,42.8850835 109.733948,42.4284029 109.885032,41.1207549 C109.99451,40.1722644 109.977087,39.19415 109.888153,38.241465 C109.782316,37.1115607 110.267813,36.8153213 111.298357,36.8365561 C114.547313,36.9034066 117.797569,36.9317197 121.047305,36.9293603 C125.162719,36.9267387 129.279953,36.9445655 133.392767,36.8279049 C135.886043,36.757122 137.06299,35.8033884 137.57189,33.8531892 C138.233436,31.3175894 137.603095,28.9269635 135.602338,27.8515882 C133.834317,26.9012626 131.869705,26.2941029 129.95112,25.6612516 C125.322645,24.1341767 120.661924,22.7064599 116.030068,21.1898714 C111.888911,19.8339862 109.74279,16.873427 109.580264,12.5291939 C109.507712,10.5941999 109.444262,8.58973387 109.847326,6.72027959 C110.723405,2.66101302 113.113705,0.690889775 117.169049,0.31338113 C118.890003,0.153202114 120.623178,0.0590871114 122.351153,0.0527953006 C128.894572,0.0292010103 135.438512,0.0538439357 141.982191,0.0603979053 Z M180.496441,0.0625738232 C180.878702,0.0644089346 181.260443,0.0982274175 181.716035,0.120773073 L181.716035,6.19158398 C179.964397,6.19158398 178.247604,6.20547839 176.531331,6.18922455 C171.636314,6.14229813 166.741556,6.0667964 161.846539,6.04031836 C160.552053,6.03324008 159.253147,6.12184974 157.963082,6.24113199 C156.671456,6.36067639 155.844525,7.13561775 155.817741,8.42491464 C155.753511,11.516291 155.796938,14.6097646 155.796938,17.9127031 L180.954374,17.9127031 L180.954374,23.9960976 L155.791997,23.9960976 L155.791997,29.6015767 L155.785737,32.8338391 C155.786594,33.3724977 155.789916,33.9111175 155.797978,34.4496791 C155.820601,35.9418868 156.410115,36.6974284 157.853604,36.7653276 C160.445176,36.8872314 163.043769,36.9089906 165.639241,36.9019123 C170.447145,36.8893287 175.255049,36.8195944 180.063212,36.7915434 C180.663648,36.7881354 181.265123,36.8937854 182,36.9611602 L182,42.6688812 C181.324673,42.739664 180.690692,42.8655003 180.056711,42.8634289 C171.263154,42.8364006 162.468297,42.8668111 153.676301,42.7192157 C149.38978,42.647122 148.063049,41.0618478 148.056028,36.6525993 C148.046406,30.6690873 148.053427,24.6853131 148.053427,18.7015389 C148.053427,14.8142485 148.032884,10.9266959 148.06773,7.0399298 C148.076571,6.04346427 148.177467,5.03126921 148.379519,4.0563007 C148.859295,1.74379809 150.105934,0.459744377 152.441625,0.321324541 C156.327162,0.0908869716 160.226221,0.0342606748 164.12008,0.00987990807 C169.578347,-0.0239385748 175.037654,0.0379308977 180.496441,0.0625738232 Z M41.9893388,15.6461831 C42.8149699,18.1639561 42.9491512,20.7407147 42.928868,23.3609918 C42.9213268,24.3700409 42.2259763,24.3406791 41.6528453,24.4817206 C35.7623896,25.9285749 30.5854872,24.5199957 26.2113324,20.3304363 C23.4821988,17.7167132 20.9046694,14.9430733 18.2322248,12.2682672 C15.6721182,9.70566515 12.7809789,7.70958819 9.11075586,7.15538452 C8.35429569,7.0410833 7.58457342,7.01591605 6.57509306,6.92861718 C9.89946115,3.52291245 13.6841024,1.48751166 18.1617536,0.846271285 C28.5600255,-0.643314912 38.7276406,5.69961681 41.9893388,15.6461831 Z" id="Combined-Shape" fill="#0F6DB8"></path>
                <path d="M42,27.7464148 C41.2190147,31.3568321 39.5009507,34.4793695 36.9907519,37.1613938 C34.9179775,39.376327 34.4564391,39.4652717 31.7084702,38.0937341 C29.1798617,36.8319301 27.0666379,35.0456682 25.6376837,32.5425858 C24.0368194,29.7374073 22.4071737,26.9435442 20.9522904,24.0604733 C19.481331,21.145035 17.7246327,18.4724841 15.452204,16.1470279 C13.0781331,13.7178907 10.126102,12.6647646 6.84295592,12.4450344 C5.66032844,12.3660894 4.46810717,12.4324032 3,12.4324032 C3.74235091,11.219545 4.27286085,10.2295749 4.9366465,9.34223326 C5.13630078,9.07592551 5.70829732,8.99619107 6.10812446,9 C10.1997407,9.03908452 13.5007779,10.9721841 16.352204,13.7134172 C19.3905791,16.6343816 22.1569576,19.8529687 25.2585998,22.6986723 C28.3387208,25.5249028 31.9244598,27.627471 36.174503,28.0098279 C38.0310285,28.1769281 39.9300778,27.8558851 42,27.7464148" id="Fill-13" fill="#EB5723"></path>
            </g>
        </g>
    </g>
</svg>