<?xml version="1.0" encoding="utf-8"?>
<svg viewBox="-0.963 -0.04 44.757 44.522" xmlns="http://www.w3.org/2000/svg" xmlns:bx="https://boxy-svg.com">
  <g id="Page-2" stroke="none" stroke-width="1" fill="none" fill-rule="evenodd">
    <g id="Preview" transform="translate(-135.000000, -20.000000)">
      <g id="logo_owse" transform="translate(135.000000, 20.000000)">
        <path d="M 78.707 0.652 C 80.717 1.09 81.635 2.705 82.169 4.546 C 82.988 7.381 83.774 10.225 84.539 13.075 C 86.28 19.571 87.989 26.077 89.755 32.567 C 90.003 33.483 90.516 34.326 91.008 35.425 C 92.572 33.569 92.927 31.615 93.403 29.75 C 95.724 20.623 97.994 11.484 100.245 2.339 C 100.509 1.263 100.952 0.847 102.098 0.905 C 104.162 1.009 106.238 0.934 108.613 0.934 C 107.558 4.744 106.569 8.283 105.589 11.826 C 103.26 20.274 100.935 28.725 98.602 37.173 C 98.367 38.011 98.102 38.843 97.804 39.658 C 96.708 42.617 94.598 44.038 91.422 43.989 C 88.41 43.942 86.032 42.31 85.209 39.385 C 83.223 32.328 81.354 25.238 79.447 18.157 C 78.806 15.762 78.235 13.346 77.548 10.963 C 77.387 10.398 76.903 9.927 76.568 9.413 L 76.158 9.461 C 75.914 10.126 75.612 10.776 75.43 11.458 C 73.515 18.533 71.646 25.62 69.706 32.689 C 69.023 35.189 68.217 37.657 67.414 40.123 C 66.55 42.788 64.362 43.696 61.896 43.951 C 59.414 44.207 57.11 43.496 55.961 41.104 C 54.897 38.902 54.099 36.538 53.454 34.171 C 50.587 23.615 47.816 13.031 45.007 2.458 C 44.887 2.004 44.763 1.551 44.602 0.964 C 47.055 0.964 49.421 0.907 51.775 1.024 C 52.13 1.041 52.627 1.815 52.755 2.318 C 53.855 6.521 54.869 10.747 55.936 14.957 C 57.495 21.095 59.063 27.23 60.672 33.354 C 60.833 33.961 61.317 34.481 61.652 35.042 C 62.12 34.428 62.835 33.883 63.025 33.191 C 65.582 23.861 68.088 14.519 70.55 5.163 C 71.737 0.654 74.665 -0.229 78.707 0.652 Z M 17.534 20.927 C 19.424 23.932 20.901 27.2 22.688 30.274 C 23.974 32.483 25.372 34.64 26.902 36.685 C 28.292 38.547 30.319 39.591 32.818 40.328 C 30.261 42.042 27.688 43.069 24.942 43.425 C 16.636 44.501 9.724 41.675 4.529 35.14 C -0.331 29.03 -1.142 22.077 1.439 14.73 C 1.575 14.338 2.196 13.89 2.614 13.861 C 8.876 13.421 14.088 15.445 17.534 20.927 Z M 141.981 0.06 L 143.515 0.06 L 143.515 6.17 C 142.101 6.17 140.727 6.182 139.358 6.168 C 133.77 6.108 128.182 6.034 122.589 5.986 C 121.994 5.981 121.394 6.108 120.798 6.183 C 118.825 6.43 117.485 7.447 117.138 9.473 C 116.786 11.501 117.245 13.396 118.991 14.561 C 120.302 15.434 121.824 16.047 123.33 16.542 C 128.343 18.196 133.414 19.677 138.419 21.355 C 142.514 22.726 145.786 24.858 145.633 31.742 C 145.596 33.258 145.646 34.837 145.244 36.27 C 144.177 40.081 142.419 42.525 137.232 42.625 C 128.657 42.79 120.079 42.762 111.504 42.869 C 110.18 42.885 109.733 42.428 109.887 41.121 C 109.994 40.172 109.978 39.194 109.887 38.241 C 109.783 37.112 110.267 36.815 111.297 36.837 C 114.548 36.903 117.799 36.932 121.046 36.929 C 125.162 36.927 129.278 36.945 133.394 36.828 C 135.888 36.757 137.063 35.803 137.571 33.853 C 138.233 31.318 137.604 28.927 135.602 27.852 C 133.836 26.901 131.871 26.294 129.952 25.661 C 125.323 24.134 120.662 22.706 116.029 21.19 C 111.889 19.834 109.742 16.873 109.58 12.529 C 109.506 10.594 109.444 8.59 109.845 6.72 C 110.722 2.661 113.113 0.691 117.171 0.313 C 118.891 0.153 120.625 0.059 122.349 0.053 C 128.893 0.029 135.437 0.054 141.981 0.06 Z M 180.499 0.063 C 180.879 0.064 181.26 0.098 181.715 0.121 L 181.715 6.192 C 179.965 6.192 178.248 6.205 176.532 6.189 C 171.634 6.142 166.741 6.067 161.848 6.04 C 160.553 6.033 159.254 6.122 157.964 6.241 C 156.673 6.361 155.846 7.136 155.817 8.425 C 155.755 11.516 155.796 14.61 155.796 17.913 L 180.954 17.913 L 180.954 23.996 L 155.792 23.996 L 155.792 29.602 L 155.784 32.834 C 155.788 33.372 155.788 33.911 155.796 34.45 C 155.821 35.942 156.408 36.697 157.852 36.765 C 160.445 36.887 163.043 36.909 165.641 36.902 C 170.447 36.889 175.254 36.82 180.064 36.792 C 180.664 36.788 181.264 36.894 182 36.961 L 182 42.669 C 181.326 42.74 180.689 42.866 180.056 42.863 C 171.262 42.836 162.468 42.867 153.678 42.719 C 149.389 42.647 148.061 41.062 148.057 36.653 C 148.045 30.669 148.053 24.685 148.053 18.702 C 148.053 14.814 148.032 10.927 148.069 7.04 C 148.078 6.043 148.177 5.031 148.38 4.056 C 148.86 1.744 150.105 0.46 152.442 0.321 C 156.326 0.091 160.226 0.034 164.119 0.01 C 169.579 -0.024 175.039 0.038 180.499 0.063 Z M 41.988 15.646 C 42.815 18.164 42.947 20.741 42.927 23.361 C 42.923 24.37 42.224 24.341 41.653 24.482 C 35.763 25.929 30.584 24.52 26.212 20.33 C 23.482 17.717 20.905 14.943 18.233 12.268 C 15.672 9.706 12.781 7.71 9.112 7.155 C 8.355 7.041 7.586 7.016 6.576 6.929 C 9.898 3.523 13.683 1.488 18.162 0.846 C 28.561 -0.643 38.728 5.7 41.988 15.646 Z" id="Combined-Shape" fill="#0F6DB8" bx:origin="-0.000002 0.5"/>
        <path d="M42,27.7464148 C41.2190147,31.3568321 39.5009507,34.4793695 36.9907519,37.1613938 C34.9179775,39.376327 34.4564391,39.4652717 31.7084702,38.0937341 C29.1798617,36.8319301 27.0666379,35.0456682 25.6376837,32.5425858 C24.0368194,29.7374073 22.4071737,26.9435442 20.9522904,24.0604733 C19.481331,21.145035 17.7246327,18.4724841 15.452204,16.1470279 C13.0781331,13.7178907 10.126102,12.6647646 6.84295592,12.4450344 C5.66032844,12.3660894 4.46810717,12.4324032 3,12.4324032 C3.74235091,11.219545 4.27286085,10.2295749 4.9366465,9.34223326 C5.13630078,9.07592551 5.70829732,8.99619107 6.10812446,9 C10.1997407,9.03908452 13.5007779,10.9721841 16.352204,13.7134172 C19.3905791,16.6343816 22.1569576,19.8529687 25.2585998,22.6986723 C28.3387208,25.5249028 31.9244598,27.627471 36.174503,28.0098279 C38.0310285,28.1769281 39.9300778,27.8558851 42,27.7464148" id="Fill-13" fill="#EB5723"/>
      </g>
    </g>
  </g>
</svg>